# File created by Blade
# Date/Time:  Thu Jan 22 16:16:06 2015
# Frame Rate: 120.000 fps
#------------------------------------------------------
:FULLY-SPECIFIED
:DEGREES
686
root 1.609887 34.448630 -7.315214 42.185772 -3.558942 3.975979
RightUpLeg -45.595582 -20.135570 -16.561799
RightLeg -6.289643 -0.000000 0.000000
RightFoot 1.729545 -26.947209 31.491015
RightToeBase 14.671542 -0.000000 -0.000000
LeftUpLeg -44.760806 15.554186 10.228493
LeftLeg -6.543098 -0.000000 0.000000
LeftFoot 5.699516 17.416895 -34.120175
LeftToeBase 11.562350 -0.000000 -0.000000
Spine 76.479950 -9.293930 -4.650817
RightShoulder 14.462463 12.640398 -41.096904
RightArm 66.892688 19.337784 33.731719
RightForeArm -25.081802 -0.000000 29.069263
RightHand 10.547312 -0.000000 -19.891008
RightHandThumb1 -24.326973 -0.000000 -32.862282
LeftShoulder 10.219290 3.268572 47.378876
LeftArm 67.025367 -26.488776 -39.438748
LeftForeArm 67.325061 -0.000000 19.279259
LeftHand -21.813266 -0.000000 30.438387
LeftHandThumb1 -26.253704 0.000000 33.147579
Head -11.110642 13.896786 -8.905505
687
root 1.639200 34.449372 -7.327439 42.843595 -3.486832 4.099415
RightUpLeg -46.267318 -20.438229 -16.485851
RightLeg -6.181572 -0.000000 0.000000
RightFoot 1.710979 -26.972819 31.560508
RightToeBase 14.619796 -0.000000 -0.000000
LeftUpLeg -45.538918 15.589632 9.866760
LeftLeg -6.527123 -0.000000 0.000000
LeftFoot 5.785630 17.321438 -34.051037
LeftToeBase 11.643112 -0.000000 -0.000000
Spine 76.646749 -9.254165 -4.907681
RightShoulder 14.479835 13.029025 -41.304478
RightArm 66.765823 19.881476 33.538664
RightForeArm -25.349186 -0.000000 28.883519
RightHand 10.624543 -0.000000 -20.047007
RightHandThumb1 -24.326973 -0.000000 -32.862282
LeftShoulder 10.057425 3.643616 47.444613
LeftArm 66.953008 -27.484836 -38.893329
LeftForeArm 67.512946 -0.000000 19.189931
LeftHand -21.795248 -0.000000 30.450482
LeftHandThumb1 -26.253704 0.000000 33.147579
Head -11.811406 13.866629 -9.155293
688
root 1.668548 34.448907 -7.337870 43.487778 -3.402497 4.230322
RightUpLeg -46.904133 -20.739177 -16.421614
RightLeg -6.097450 -0.000000 0.000000
RightFoot 1.656741 -27.033041 31.659430
RightToeBase 14.721837 -0.000000 -0.000000
LeftUpLeg -46.281360 15.552719 9.578357
LeftLeg -6.517170 -0.000000 0.000000
LeftFoot 5.836349 17.285259 -34.068996
LeftToeBase 11.605435 -0.000000 -0.000000
Spine 76.827702 -9.167536 -4.990214
RightShoulder 14.327541 13.272626 -41.502746
RightArm 66.672892 20.513390 33.478486
RightForeArm -25.464610 0.000000 28.801995
RightHand 10.704313 -0.000000 -19.808287
RightHandThumb1 -24.326973 -0.000000 -32.862282
LeftShoulder 9.960334 3.707545 47.631825
LeftArm 66.843553 -28.330595 -38.586290
LeftForeArm 67.473424 -0.000000 19.176440
LeftHand -21.931117 -0.000000 30.470036
LeftHandThumb1 -26.253704 0.000000 33.147579
Head -12.556863 13.752923 -9.297632
689
root 1.694013 34.448738 -7.349473 44.170249 -3.318006 4.322649
RightUpLeg -47.561996 -20.996672 -16.332300
RightLeg -6.038472 -0.000000 0.000000
RightFoot 1.600876 -27.113462 31.757708
RightToeBase 14.670605 -0.000000 -0.000000
LeftUpLeg -47.015978 15.473430 9.420445
LeftLeg -6.526389 -0.000000 0.000000
LeftFoot 5.823241 17.328478 -34.163322
LeftToeBase 11.603265 -0.000000 -0.000000
Spine 76.950803 -9.085629 -5.015928
RightShoulder 14.199170 13.472920 -41.722207
RightArm 66.463597 21.102104 33.136979
RightForeArm -25.684056 -0.000000 28.648493
RightHand 10.787476 -0.000000 -20.080124
RightHandThumb1 -24.326973 -0.000000 -32.862282
LeftShoulder 9.943679 3.689152 47.743698
LeftArm 66.559853 -29.138248 -38.157934
LeftForeArm 67.780016 -0.000000 19.189967
LeftHand -22.369274 -0.000000 30.541296
LeftHandThumb1 -26.253704 0.000000 33.147579
Head -13.207734 13.514004 -9.484778
690
root 1.720853 34.446871 -7.357912 44.825193 -3.253605 4.417211
RightUpLeg -48.188754 -21.252455 -16.247156
RightLeg -6.002286 -0.000000 0.000000
RightFoot 1.557194 -27.204876 31.842482
RightToeBase 14.630735 -0.000000 -0.000000
LeftUpLeg -47.755799 15.459258 9.190372
LeftLeg -6.479777 -0.000000 0.000000
LeftFoot 5.809397 17.243878 -34.171158
LeftToeBase 11.714603 -0.000000 -0.000000
Spine 77.115076 -8.990081 -5.083999
RightShoulder 14.060498 13.623523 -41.934956
RightArm 66.337809 21.766828 32.873161
RightForeArm -25.452562 -0.000000 28.452859
RightHand 11.031920 -0.000000 -20.257191
RightHandThumb1 -24.326973 -0.000000 -32.862282
LeftShoulder 9.897936 3.755680 47.918184
LeftArm 66.341183 -30.038773 -37.867525
LeftForeArm 67.774953 -0.000000 19.294426
LeftHand -22.530337 -0.000000 30.711060
LeftHandThumb1 -26.253704 0.000000 33.147579
Head -13.888776 13.405045 -9.557962
691
root 1.745879 34.446751 -7.364593 45.490945 -3.202803 4.517774
RightUpLeg -48.830758 -21.530726 -16.135278
RightLeg -5.983894 -0.000000 0.000000
RightFoot 1.537030 -27.259759 31.955529
RightToeBase 14.616132 -0.000000 -0.000000
LeftUpLeg -48.467119 15.402630 9.004211
LeftLeg -6.476871 -0.000000 0.000000
LeftFoot 5.776743 17.291415 -34.427703
LeftToeBase 11.640171 -0.000000 -0.000000
Spine 77.260568 -8.863466 -5.113608
RightShoulder 13.904778 13.775662 -42.130507
RightArm 66.079648 22.417280 32.648439
RightForeArm -25.572179 0.000000 28.378212
RightHand 11.155856 -0.000000 -20.464512
RightHandThumb1 -24.326973 -0.000000 -32.862282
LeftShoulder 9.913832 3.711712 48.091035
LeftArm 66.102175 -30.935274 -37.631998
LeftForeArm 67.674020 -0.000000 19.408403
LeftHand -22.517439 -0.000000 31.081813
LeftHandThumb1 -26.253704 0.000000 33.147579
Head -14.488727 13.210559 -9.601266
692
root 1.767280 34.445584 -7.371942 46.184960 -3.141463 4.621515
RightUpLeg -49.501767 -21.832931 -15.981702
RightLeg -5.976991 -0.000000 0.000000
RightFoot 1.536801 -27.289358 32.012664
RightToeBase 14.612538 -0.000000 -0.000000
LeftUpLeg -49.213081 15.330115 8.838085
LeftLeg -6.454020 -0.000000 0.000000
LeftFoot 5.782983 17.306435 -34.436263
LeftToeBase 11.529848 -0.000000 -0.000000
Spine 77.374326 -8.784782 -5.192191
RightShoulder 13.777844 14.055494 -42.305084
RightArm 65.871801 22.951480 32.456478
RightForeArm -25.715793 -0.000000 28.146452
RightHand 11.481716 0.000000 -20.951832
RightHandThumb1 -24.326973 -0.000000 -32.862282
LeftShoulder 9.882838 3.747700 48.211807
LeftArm 65.859720 -31.822104 -37.327332
LeftForeArm 67.694341 -0.000000 19.505676
LeftHand -22.689750 -0.000000 31.400727
LeftHandThumb1 -26.253704 0.000000 33.147579
Head -15.062936 13.044294 -9.651961
693
root 1.789949 34.443415 -7.374122 46.835988 -3.102213 4.732690
RightUpLeg -50.099436 -22.104127 -15.881678
RightLeg -6.007869 -0.000000 0.000000
RightFoot 1.486215 -27.353126 32.147255
RightToeBase 14.580510 -0.000000 -0.000000
LeftUpLeg -49.905569 15.263309 8.643952
LeftLeg -6.437825 -0.000000 0.000000
LeftFoot 5.690501 17.337876 -34.563208
LeftToeBase 11.609108 -0.000000 -0.000000
Spine 77.517968 -8.682028 -5.283381
RightShoulder 13.656989 14.243321 -42.484159
RightArm 65.573508 23.536412 32.170415
RightForeArm -25.761653 0.000000 28.021390
RightHand 11.598424 -0.000000 -21.358447
RightHandThumb1 -24.326973 -0.000000 -32.862282
LeftShoulder 9.891890 3.868897 48.366383
LeftArm 65.697262 -32.830079 -37.117881
LeftForeArm 67.676317 -0.000000 19.642680
LeftHand -22.912616 -0.000000 31.814870
LeftHandThumb1 -26.253704 0.000000 33.147579
Head -15.567922 12.818045 -9.656948
694
root 1.809479 34.442883 -7.377087 47.505126 -3.073092 4.836616
RightUpLeg -50.745029 -22.398635 -15.727542
RightLeg -6.019683 -0.000000 0.000000
RightFoot 1.482562 -27.337925 32.256004
RightToeBase 14.601452 -0.000000 -0.000000
LeftUpLeg -50.642967 15.233868 8.408304
LeftLeg -6.386991 -0.000000 0.000000
LeftFoot 5.670257 17.347738 -34.584521
LeftToeBase 11.535050 -0.000000 -0.000000
Spine 77.661259 -8.571888 -5.422965
RightShoulder 13.553906 14.584265 -42.625168
RightArm 65.250868 24.044881 31.990327
RightForeArm -25.978589 -0.000000 27.881329
RightHand 11.734571 -0.000000 -21.935435
RightHandThumb1 -24.326973 -0.000000 -32.862282
LeftShoulder 9.796328 4.022560 48.504840
LeftArm 65.555465 -33.746887 -36.752612
LeftForeArm 67.525387 -0.000000 19.673096
LeftHand -23.023093 -0.000000 32.392805
LeftHandThumb1 -26.253704 0.000000 33.147579
Head -16.104069 12.692065 -9.583223
695
root 1.827693 34.442130 -7.375946 48.153637 -3.065299 4.951462
RightUpLeg -51.348606 -22.666031 -15.618548
RightLeg -6.054089 -0.000000 0.000000
RightFoot 1.462648 -27.352348 32.348460
RightToeBase 14.578768 -0.000000 -0.000000
LeftUpLeg -51.354039 15.225263 8.130505
LeftLeg -6.341378 -0.000000 0.000000
LeftFoot 5.618151 17.330701 -34.671305
LeftToeBase 11.598831 -0.000000 -0.000000
Spine 77.815590 -8.433674 -5.540754
RightShoulder 13.374648 14.771472 -42.811449
RightArm 65.013674 24.687331 32.043841
RightForeArm -26.264627 -0.000000 27.870122
RightHand 11.943686 -0.000000 -22.130016
RightHandThumb1 -24.326973 -0.000000 -32.862282
LeftShoulder 9.708722 4.133128 48.653384
LeftArm 65.547083 -34.698817 -36.611855
LeftForeArm 67.715933 -0.000000 19.726842
LeftHand -23.167177 0.000000 32.980347
LeftHandThumb1 -26.253704 0.000000 33.147579
Head -16.626087 12.457326 -9.476808
